<mxfile host="Electron" agent="Mozilla/5.0 (Windows NT 10.0; Win64; x64) AppleWebKit/537.36 (KHTML, like Gecko) draw.io/24.7.17 Chrome/128.0.6613.36 Electron/32.0.1 Safari/537.36" version="24.7.17">
  <diagram name="Page-1" id="2YBvvXClWsGukQMizWep">
    <mxGraphModel dx="1562" dy="917" grid="1" gridSize="10" guides="1" tooltips="1" connect="1" arrows="1" fold="1" page="1" pageScale="1" pageWidth="850" pageHeight="1100" math="0" shadow="0">
      <root>
        <mxCell id="0" />
        <mxCell id="1" parent="0" />
        <mxCell id="aM9ryv3xv72pqoxQDRHE-1" value="User" style="shape=umlLifeline;perimeter=lifelinePerimeter;whiteSpace=wrap;html=1;container=0;dropTarget=0;collapsible=0;recursiveResize=0;outlineConnect=0;portConstraint=eastwest;newEdgeStyle={&quot;edgeStyle&quot;:&quot;elbowEdgeStyle&quot;,&quot;elbow&quot;:&quot;vertical&quot;,&quot;curved&quot;:0,&quot;rounded&quot;:0};" parent="1" vertex="1">
          <mxGeometry x="40" y="40" width="100" height="440" as="geometry" />
        </mxCell>
        <mxCell id="aM9ryv3xv72pqoxQDRHE-2" value="" style="html=1;points=[];perimeter=orthogonalPerimeter;outlineConnect=0;targetShapes=umlLifeline;portConstraint=eastwest;newEdgeStyle={&quot;edgeStyle&quot;:&quot;elbowEdgeStyle&quot;,&quot;elbow&quot;:&quot;vertical&quot;,&quot;curved&quot;:0,&quot;rounded&quot;:0};" parent="aM9ryv3xv72pqoxQDRHE-1" vertex="1">
          <mxGeometry x="45" y="70" width="10" height="310" as="geometry" />
        </mxCell>
        <mxCell id="aM9ryv3xv72pqoxQDRHE-5" value="Website" style="shape=umlLifeline;perimeter=lifelinePerimeter;whiteSpace=wrap;html=1;container=0;dropTarget=0;collapsible=0;recursiveResize=0;outlineConnect=0;portConstraint=eastwest;newEdgeStyle={&quot;edgeStyle&quot;:&quot;elbowEdgeStyle&quot;,&quot;elbow&quot;:&quot;vertical&quot;,&quot;curved&quot;:0,&quot;rounded&quot;:0};" parent="1" vertex="1">
          <mxGeometry x="220" y="40" width="100" height="490" as="geometry" />
        </mxCell>
        <mxCell id="aM9ryv3xv72pqoxQDRHE-6" value="" style="html=1;points=[];perimeter=orthogonalPerimeter;outlineConnect=0;targetShapes=umlLifeline;portConstraint=eastwest;newEdgeStyle={&quot;edgeStyle&quot;:&quot;elbowEdgeStyle&quot;,&quot;elbow&quot;:&quot;vertical&quot;,&quot;curved&quot;:0,&quot;rounded&quot;:0};" parent="aM9ryv3xv72pqoxQDRHE-5" vertex="1">
          <mxGeometry x="45" y="80" width="10" height="310" as="geometry" />
        </mxCell>
        <mxCell id="aM9ryv3xv72pqoxQDRHE-7" value="User Click &quot;New User? Sign Up!&quot;" style="html=1;verticalAlign=bottom;endArrow=block;edgeStyle=elbowEdgeStyle;elbow=vertical;curved=0;rounded=0;" parent="1" source="aM9ryv3xv72pqoxQDRHE-2" target="aM9ryv3xv72pqoxQDRHE-6" edge="1">
          <mxGeometry relative="1" as="geometry">
            <mxPoint x="195" y="130" as="sourcePoint" />
            <Array as="points">
              <mxPoint x="180" y="120" />
            </Array>
          </mxGeometry>
        </mxCell>
        <mxCell id="aM9ryv3xv72pqoxQDRHE-8" value="Captcha Verification&amp;nbsp;&lt;div&gt;Success&lt;/div&gt;" style="html=1;verticalAlign=bottom;endArrow=open;dashed=1;endSize=8;edgeStyle=elbowEdgeStyle;elbow=vertical;curved=0;rounded=0;" parent="1" target="aM9ryv3xv72pqoxQDRHE-6" edge="1">
          <mxGeometry relative="1" as="geometry">
            <mxPoint x="275" y="390" as="targetPoint" />
            <Array as="points">
              <mxPoint x="390" y="380" />
            </Array>
            <mxPoint x="424.5" y="380" as="sourcePoint" />
          </mxGeometry>
        </mxCell>
        <mxCell id="aM9ryv3xv72pqoxQDRHE-9" value="" style="html=1;verticalAlign=bottom;endArrow=block;edgeStyle=elbowEdgeStyle;elbow=vertical;curved=0;rounded=0;" parent="1" edge="1">
          <mxGeometry relative="1" as="geometry">
            <mxPoint x="265" y="232" as="sourcePoint" />
            <Array as="points" />
            <mxPoint x="95" y="232" as="targetPoint" />
          </mxGeometry>
        </mxCell>
        <mxCell id="vAOSHJxVoBXAHHneyRxk-1" value="Capacha" style="shape=umlLifeline;perimeter=lifelinePerimeter;whiteSpace=wrap;html=1;container=0;dropTarget=0;collapsible=0;recursiveResize=0;outlineConnect=0;portConstraint=eastwest;newEdgeStyle={&quot;edgeStyle&quot;:&quot;elbowEdgeStyle&quot;,&quot;elbow&quot;:&quot;vertical&quot;,&quot;curved&quot;:0,&quot;rounded&quot;:0};" parent="1" vertex="1">
          <mxGeometry x="375" y="40" width="100" height="490" as="geometry" />
        </mxCell>
        <mxCell id="vAOSHJxVoBXAHHneyRxk-2" value="" style="html=1;points=[];perimeter=orthogonalPerimeter;outlineConnect=0;targetShapes=umlLifeline;portConstraint=eastwest;newEdgeStyle={&quot;edgeStyle&quot;:&quot;elbowEdgeStyle&quot;,&quot;elbow&quot;:&quot;vertical&quot;,&quot;curved&quot;:0,&quot;rounded&quot;:0};" parent="vAOSHJxVoBXAHHneyRxk-1" vertex="1">
          <mxGeometry x="45" y="290" width="10" height="70" as="geometry" />
        </mxCell>
        <mxCell id="vAOSHJxVoBXAHHneyRxk-3" value="Database" style="shape=umlLifeline;perimeter=lifelinePerimeter;whiteSpace=wrap;html=1;container=0;dropTarget=0;collapsible=0;recursiveResize=0;outlineConnect=0;portConstraint=eastwest;newEdgeStyle={&quot;edgeStyle&quot;:&quot;elbowEdgeStyle&quot;,&quot;elbow&quot;:&quot;vertical&quot;,&quot;curved&quot;:0,&quot;rounded&quot;:0};" parent="1" vertex="1">
          <mxGeometry x="620" y="40" width="100" height="490" as="geometry" />
        </mxCell>
        <mxCell id="vAOSHJxVoBXAHHneyRxk-4" value="" style="html=1;points=[];perimeter=orthogonalPerimeter;outlineConnect=0;targetShapes=umlLifeline;portConstraint=eastwest;newEdgeStyle={&quot;edgeStyle&quot;:&quot;elbowEdgeStyle&quot;,&quot;elbow&quot;:&quot;vertical&quot;,&quot;curved&quot;:0,&quot;rounded&quot;:0};" parent="vAOSHJxVoBXAHHneyRxk-3" vertex="1">
          <mxGeometry x="45" y="370" width="10" height="20" as="geometry" />
        </mxCell>
        <mxCell id="vAOSHJxVoBXAHHneyRxk-7" value="" style="swimlane;startSize=0;" parent="1" vertex="1">
          <mxGeometry x="275" y="120" width="70" height="50" as="geometry">
            <mxRectangle x="275" y="120" width="50" height="40" as="alternateBounds" />
          </mxGeometry>
        </mxCell>
        <mxCell id="vAOSHJxVoBXAHHneyRxk-8" value="" style="endArrow=classic;html=1;rounded=0;" parent="1" edge="1">
          <mxGeometry width="50" height="50" relative="1" as="geometry">
            <mxPoint x="334.79" y="170" as="sourcePoint" />
            <mxPoint x="275.00014492753627" y="170" as="targetPoint" />
          </mxGeometry>
        </mxCell>
        <mxCell id="vAOSHJxVoBXAHHneyRxk-10" value="&lt;font style=&quot;font-size: 11px;&quot;&gt;Display Registration Form&lt;/font&gt;" style="edgeLabel;html=1;align=center;verticalAlign=middle;resizable=0;points=[];" parent="vAOSHJxVoBXAHHneyRxk-8" vertex="1" connectable="0">
          <mxGeometry x="-0.2602" relative="1" as="geometry">
            <mxPoint x="27" y="-60" as="offset" />
          </mxGeometry>
        </mxCell>
        <mxCell id="vAOSHJxVoBXAHHneyRxk-11" value="" style="html=1;verticalAlign=bottom;endArrow=block;edgeStyle=elbowEdgeStyle;elbow=vertical;curved=0;rounded=0;" parent="1" edge="1">
          <mxGeometry x="1" y="-136" relative="1" as="geometry">
            <mxPoint x="95" y="189.78" as="sourcePoint" />
            <Array as="points">
              <mxPoint x="180" y="189.78" />
            </Array>
            <mxPoint x="265" y="189.78" as="targetPoint" />
            <mxPoint x="65" y="-16" as="offset" />
          </mxGeometry>
        </mxCell>
        <mxCell id="vAOSHJxVoBXAHHneyRxk-13" value="&lt;span style=&quot;font-size: 11px; background-color: rgb(24, 20, 29);&quot;&gt;Click&quot;Upload Profile Picture&quot;&lt;/span&gt;" style="text;html=1;align=center;verticalAlign=middle;resizable=0;points=[];autosize=1;strokeColor=none;fillColor=none;" parent="1" vertex="1">
          <mxGeometry x="100" y="163" width="160" height="30" as="geometry" />
        </mxCell>
        <mxCell id="vAOSHJxVoBXAHHneyRxk-17" value="&lt;span style=&quot;font-size: 11px; background-color: rgb(24, 20, 29);&quot;&gt;Show Profile Picture&amp;nbsp;&lt;/span&gt;&lt;div&gt;&lt;span style=&quot;font-size: 11px; background-color: rgb(24, 20, 29);&quot;&gt;Upload Option&lt;/span&gt;&lt;/div&gt;" style="text;html=1;align=center;verticalAlign=middle;resizable=0;points=[];autosize=1;strokeColor=none;fillColor=none;" parent="1" vertex="1">
          <mxGeometry x="119" y="192" width="130" height="40" as="geometry" />
        </mxCell>
        <mxCell id="QSxlnHA0XbJM9A2Kajcs-1" value="&lt;span style=&quot;font-size: 11px; background-color: rgb(24, 20, 29);&quot;&gt;User Filled The Form&lt;/span&gt;" style="text;html=1;align=center;verticalAlign=middle;resizable=0;points=[];autosize=1;strokeColor=none;fillColor=none;" parent="1" vertex="1">
          <mxGeometry x="115" y="240" width="130" height="30" as="geometry" />
        </mxCell>
        <mxCell id="QSxlnHA0XbJM9A2Kajcs-2" value="" style="html=1;verticalAlign=bottom;endArrow=block;edgeStyle=elbowEdgeStyle;elbow=vertical;curved=0;rounded=0;" parent="1" edge="1">
          <mxGeometry x="1" y="-136" relative="1" as="geometry">
            <mxPoint x="95" y="270" as="sourcePoint" />
            <Array as="points">
              <mxPoint x="180" y="270" />
            </Array>
            <mxPoint x="265" y="270" as="targetPoint" />
            <mxPoint x="65" y="-16" as="offset" />
          </mxGeometry>
        </mxCell>
        <mxCell id="QSxlnHA0XbJM9A2Kajcs-3" value="&lt;span style=&quot;font-size: 11px; background-color: rgb(24, 20, 29);&quot;&gt;User Check &quot;I am&amp;nbsp;&lt;/span&gt;&lt;div&gt;&lt;span style=&quot;font-size: 11px; background-color: rgb(24, 20, 29);&quot;&gt;not a robot&quot; box&lt;/span&gt;&lt;/div&gt;" style="text;html=1;align=center;verticalAlign=middle;resizable=0;points=[];autosize=1;strokeColor=none;fillColor=none;" parent="1" vertex="1">
          <mxGeometry x="125" y="275" width="110" height="40" as="geometry" />
        </mxCell>
        <mxCell id="QSxlnHA0XbJM9A2Kajcs-4" value="" style="html=1;verticalAlign=bottom;endArrow=block;edgeStyle=elbowEdgeStyle;elbow=vertical;curved=0;rounded=0;" parent="1" edge="1">
          <mxGeometry x="1" y="-136" relative="1" as="geometry">
            <mxPoint x="95" y="310" as="sourcePoint" />
            <Array as="points">
              <mxPoint x="180" y="310" />
            </Array>
            <mxPoint x="265" y="310" as="targetPoint" />
            <mxPoint x="65" y="-16" as="offset" />
          </mxGeometry>
        </mxCell>
        <mxCell id="QSxlnHA0XbJM9A2Kajcs-5" value="&lt;span style=&quot;font-size: 11px; background-color: rgb(24, 20, 29);&quot;&gt;Verify CAPTCHA&lt;/span&gt;" style="text;html=1;align=center;verticalAlign=middle;resizable=0;points=[];autosize=1;strokeColor=none;fillColor=none;" parent="1" vertex="1">
          <mxGeometry x="290" y="315" width="110" height="30" as="geometry" />
        </mxCell>
        <mxCell id="QSxlnHA0XbJM9A2Kajcs-6" value="" style="html=1;verticalAlign=bottom;endArrow=block;edgeStyle=elbowEdgeStyle;elbow=vertical;curved=0;rounded=0;" parent="1" edge="1">
          <mxGeometry x="1" y="-136" relative="1" as="geometry">
            <mxPoint x="275.00222222222226" y="340" as="sourcePoint" />
            <Array as="points">
              <mxPoint x="338.78" y="340" />
            </Array>
            <mxPoint x="419.78" y="340" as="targetPoint" />
            <mxPoint x="65" y="-16" as="offset" />
          </mxGeometry>
        </mxCell>
        <mxCell id="QSxlnHA0XbJM9A2Kajcs-8" value="&lt;span style=&quot;font-size: 11px; background-color: rgb(24, 20, 29);&quot;&gt;User Click &quot;Register&quot;&lt;/span&gt;" style="text;html=1;align=center;verticalAlign=middle;resizable=0;points=[];autosize=1;strokeColor=none;fillColor=none;" parent="1" vertex="1">
          <mxGeometry x="115" y="380" width="130" height="30" as="geometry" />
        </mxCell>
        <mxCell id="QSxlnHA0XbJM9A2Kajcs-9" value="" style="html=1;verticalAlign=bottom;endArrow=block;edgeStyle=elbowEdgeStyle;elbow=vertical;curved=0;rounded=0;" parent="1" edge="1">
          <mxGeometry x="1" y="-136" relative="1" as="geometry">
            <mxPoint x="95" y="410" as="sourcePoint" />
            <Array as="points">
              <mxPoint x="180" y="410" />
            </Array>
            <mxPoint x="265" y="410" as="targetPoint" />
            <mxPoint x="65" y="-16" as="offset" />
          </mxGeometry>
        </mxCell>
        <mxCell id="QSxlnHA0XbJM9A2Kajcs-10" value="" style="html=1;verticalAlign=bottom;endArrow=block;edgeStyle=elbowEdgeStyle;elbow=vertical;curved=0;rounded=0;" parent="1" target="vAOSHJxVoBXAHHneyRxk-4" edge="1">
          <mxGeometry x="1" y="-136" relative="1" as="geometry">
            <mxPoint x="275" y="420" as="sourcePoint" />
            <Array as="points">
              <mxPoint x="360" y="420" />
            </Array>
            <mxPoint x="660" y="420" as="targetPoint" />
            <mxPoint x="65" y="-16" as="offset" />
          </mxGeometry>
        </mxCell>
        <mxCell id="QSxlnHA0XbJM9A2Kajcs-11" value="&lt;span style=&quot;font-size: 11px; background-color: rgb(24, 20, 29);&quot;&gt;Create new User Record&lt;/span&gt;" style="text;html=1;align=center;verticalAlign=middle;resizable=0;points=[];autosize=1;strokeColor=none;fillColor=none;" parent="1" vertex="1">
          <mxGeometry x="450" y="390" width="140" height="30" as="geometry" />
        </mxCell>
      </root>
    </mxGraphModel>
  </diagram>
</mxfile>
